<?xml version="1.0" encoding="utf-8"?>
<!-- Generator: Adobe Illustrator 23.1.1, SVG Export Plug-In . SVG Version: 6.00 Build 0)  -->
<svg version="1.1" id="Layer_1" xmlns="http://www.w3.org/2000/svg" xmlns:xlink="http://www.w3.org/1999/xlink" x="0px" y="0px"
	 viewBox="0 0 16 16" style="enable-background:new 0 0 16 16;" xml:space="preserve">
<style type="text/css">
	.st0{fill:#FF32E8;}
	.st1{fill:url(#SVGID_1_);}
	.st2{fill:#FF1B4C;}
	.st3{fill:#FFFFFF;}
</style>
<circle class="st0" cx="13.63" cy="2.62" r="2.3"/>
<linearGradient id="SVGID_1_" gradientUnits="userSpaceOnUse" x1="-37.9568" y1="-578.5939" x2="-25.6462" y2="-578.5939" gradientTransform="matrix(0 -1 1 0 586.9811 -24.077)">
	<stop  offset="0" style="stop-color:#0000FF"/>
	<stop  offset="0.0403" style="stop-color:#1106EF"/>
	<stop  offset="0.1895" style="stop-color:#4C1CBA"/>
	<stop  offset="0.3384" style="stop-color:#7E2F8C"/>
	<stop  offset="0.4838" style="stop-color:#A73F67"/>
	<stop  offset="0.6248" style="stop-color:#C84B4A"/>
	<stop  offset="0.7604" style="stop-color:#DE5335"/>
	<stop  offset="0.8882" style="stop-color:#EC5828"/>
	<stop  offset="1" style="stop-color:#F15A24"/>
</linearGradient>
<circle class="st1" cx="8.39" cy="7.72" r="6.16"/>
<ellipse class="st2" cx="2.97" cy="12.83" rx="2.74" ry="2.85"/>
<g>
	<path class="st3" d="M5.13,6.74c0.01-0.09,0.03-0.19,0.04-0.31C5.18,6.31,5.19,6.19,5.2,6.07c0.01-0.12,0.02-0.24,0.03-0.35
		c0.01-0.11,0.02-0.19,0.03-0.25h0.59C5.83,5.64,5.81,5.8,5.79,5.96c-0.02,0.16-0.03,0.26-0.02,0.3H5.8
		c0.08-0.12,0.17-0.24,0.29-0.35C6.21,5.8,6.33,5.7,6.48,5.62c0.14-0.08,0.3-0.15,0.47-0.2C7.12,5.38,7.3,5.35,7.48,5.35
		c0.3,0,0.57,0.08,0.79,0.23c0.23,0.15,0.37,0.4,0.43,0.75C8.9,5.99,9.14,5.74,9.45,5.59s0.62-0.24,0.93-0.24
		c0.35,0,0.63,0.06,0.84,0.17c0.21,0.11,0.36,0.26,0.47,0.44c0.1,0.18,0.16,0.39,0.17,0.62c0.01,0.24,0,0.48-0.03,0.73L11.46,10
		h-0.59l0.37-2.67c0.03-0.18,0.04-0.36,0.03-0.54c-0.01-0.17-0.04-0.33-0.11-0.47C11.1,6.2,11,6.09,10.87,6
		c-0.13-0.08-0.32-0.12-0.55-0.12c-0.28,0-0.51,0.05-0.7,0.15c-0.19,0.1-0.35,0.23-0.48,0.39C9.01,6.58,8.92,6.75,8.85,6.93
		C8.78,7.11,8.74,7.29,8.72,7.45L8.36,10H7.77l0.38-2.73c0.06-0.42,0.03-0.76-0.09-1.01C7.95,6.01,7.73,5.88,7.41,5.88
		c-0.22,0-0.43,0.04-0.63,0.11C6.58,6.07,6.4,6.18,6.23,6.34c-0.16,0.15-0.3,0.35-0.42,0.58C5.7,7.15,5.62,7.42,5.58,7.74L5.26,10
		H4.67L5.13,6.74z"/>
</g>
</svg>
